<svg width="1000" height="600" xmlns="http://www.w3.org/2000/svg"><defs><linearGradient id="a" gradientTransform="rotate(90)"><stop offset="5%" stop-color="#6324fc"/><stop offset="95%" stop-color="#8a5afc"/></linearGradient><linearGradient id="b" gradientTransform="rotate(90)"><stop offset="5%" stop-color="#6c45f9"/><stop offset="95%" stop-color="#9073fa"/></linearGradient><linearGradient id="c" gradientTransform="rotate(90)"><stop offset="5%" stop-color="#7665f6"/><stop offset="95%" stop-color="#988bf8"/></linearGradient><linearGradient id="d" gradientTransform="rotate(90)"><stop offset="5%" stop-color="#7f86f3"/><stop offset="95%" stop-color="#9fa4f6"/></linearGradient></defs><path fill="#5903ff" d="M0 0h1000v600H0z"/><path d="M0 120c16.097-14.586 32.195-29.172 47-29 14.805.172 28.319 15.102 43 16 14.681.898 30.53-12.238 47-9 16.47 3.238 33.561 22.848 50 18 16.439-4.848 32.226-34.155 45-25 12.774 9.155 22.537 56.773 37 56 14.463-.773 33.628-49.937 48-57 14.372-7.063 23.95 27.975 40 39 16.05 11.025 38.57-1.965 56 0s29.766 18.883 44 12c14.234-6.883 30.363-37.567 46-41s30.78 20.386 45 33c14.22 12.614 27.517 14.025 42 5s30.15-28.486 46-35c15.85-6.514 31.88-.083 47 10 15.12 10.083 29.332 23.817 44 30s29.793 4.814 46-8 33.495-37.072 50-40c16.505-2.928 32.228 15.473 46 15 13.772-.473 25.592-19.82 39-12 13.408 7.82 28.402 42.806 44 51 15.598 8.194 31.799-10.403 88-29l-40 480H0Z" fill="url(#a)"/><path d="M0 240c15.833-11.887 31.667-23.775 48-21 16.333 2.775 33.167 20.212 48 25 14.833 4.788 27.667-3.074 41-2 13.333 1.074 27.166 11.084 41 12 13.834.916 27.668-7.262 44-2s35.163 23.963 51 20c15.837-3.963 28.682-30.592 42-31 13.318-.408 27.109 25.405 44 27 16.891 1.595 36.882-21.027 52-34 15.118-12.973 25.364-16.297 39-19 13.636-2.703 30.662-4.784 48 6 17.338 10.784 34.987 34.432 49 38 14.013 3.568 24.389-12.944 39-20 14.611-7.056 33.457-4.657 48-4s24.782-.43 41-6 38.414-15.627 55-13c16.586 2.627 27.56 17.935 40 32 12.44 14.065 26.344 26.885 42 16 15.656-10.885 33.062-45.474 50-57 16.938-11.526 33.406.012 50 12s33.312 24.425 48 28c14.688 3.575 27.344-1.713 80-7l-40 360H0Z" fill="url(#b)"/><path d="M0 360c11.41 4.206 22.819 8.412 39 17s37.135 21.559 55 12c17.865-9.559 32.642-41.647 46-47 13.358-5.353 25.299 16.03 40 22 14.701 5.97 32.163-3.473 48-2 15.837 1.473 30.05 13.862 45 15s30.637-8.975 47-8c16.363.975 33.4 13.037 46 7 12.6-6.037 20.76-30.174 37-43s40.56-14.342 57 1c16.44 15.342 25 47.543 38 56s30.439-6.83 48-12 35.245-.222 48-8c12.755-7.778 20.582-28.28 36-28 15.418.28 38.427 21.345 57 19 18.573-2.345 32.711-28.099 44-25 11.289 3.099 19.729 35.05 35 50 15.271 14.95 37.374 12.901 54-4 16.626-16.901 27.776-48.654 41-51 13.224-2.346 28.522 24.715 46 28s37.137-17.204 53-21c15.863-3.796 27.932 9.102 80 22l-40 240H0Z" fill="url(#c)"/><path d="M0 480c11.792-11.589 23.584-23.178 40-22 16.416 1.178 37.454 15.122 53 17 15.546 1.878 25.598-8.31 39 1 13.402 9.31 30.153 38.12 48 31 17.847-7.12 36.79-50.17 52-54 15.21-3.83 26.686 31.557 40 39 13.314 7.443 28.466-13.059 43-27 14.534-13.941 28.45-21.323 46-17s38.737 20.349 53 23c14.263 2.651 21.603-8.073 35 1 13.397 9.073 32.85 37.943 49 40 16.15 2.057 28.996-22.7 45-32s35.167-3.146 52 4 31.337 15.281 43 8c11.663-7.281 20.485-29.98 37-27 16.515 2.98 40.724 31.64 57 40 16.276 8.36 24.619-3.577 36-5s25.801 7.668 44 12 40.177 3.903 56-8 25.49-35.282 39-45c13.51-9.718 30.86-5.777 47 0s31.07 13.388 86 21l-40 120H0Z" fill="url(#d)"/></svg>